<?xml version="1.0" encoding="UTF-8"?>
<svg id="_레이어_2" data-name="레이어 2" xmlns="http://www.w3.org/2000/svg" viewBox="0 0 497.31 114.71">
  <defs>
    <style>
      .cls-1 {
        fill: current;
      }

      .cls-1, .cls-2, .cls-3 {
        stroke-width: 0px;
      }

      .cls-2 {
        fill: current;
      }

      .cls-3 {
        fill: #fff;
      }
    </style>
  </defs>
  <g id="_레이어_1-2" data-name="레이어 1">
    <g>
      <g>
        <path class="cls-1" d="m57.35,4.65C28.24,4.65,4.65,28.24,4.65,57.35s23.6,52.71,52.71,52.71,52.71-23.6,52.71-52.71S86.46,4.65,57.35,4.65Zm0,93.29c-22.41,0-40.58-18.17-40.58-40.58S34.94,16.78,57.35,16.78s40.58,18.17,40.58,40.58-18.17,40.58-40.58,40.58Z"/>
        <path class="cls-1" d="m57.35,110.06c-29.06,0-52.71-23.64-52.71-52.71S28.29,4.65,57.35,4.65s52.71,23.64,52.71,52.71-23.64,52.71-52.71,52.71Zm0-103.85C29.16,6.21,6.21,29.16,6.21,57.35s22.94,51.14,51.14,51.14,51.14-22.94,51.14-51.14S85.55,6.21,57.35,6.21Z"/>
        <path class="cls-1" d="m57.35,97.93c-22.37,0-40.58-18.2-40.58-40.58S34.98,16.78,57.35,16.78s40.58,18.2,40.58,40.58-18.2,40.58-40.58,40.58Zm0-79.59c-21.51,0-39.01,17.5-39.01,39.01s17.5,39.01,39.01,39.01,39.01-17.5,39.01-39.01-17.5-39.01-39.01-39.01Z"/>
        <path class="cls-1" d="m57.35,114.71C25.73,114.71,0,88.98,0,57.35S25.73,0,57.35,0s57.35,25.73,57.35,57.35-25.73,57.35-57.35,57.35Zm0-111.57C27.46,3.14,3.13,27.46,3.13,57.35s24.32,54.22,54.22,54.22,54.22-24.32,54.22-54.22S87.25,3.14,57.35,3.14Z"/>
        <g>
          <path class="cls-1" d="m43.55,39.88l-4.69,29.47h13.29c.39,0,.64.24.54.68l-.68,4.25c-.05.44-.34.68-.78.68h-18.62c-.39,0-.64-.29-.59-.73l5.47-34.36c.1-.44.34-.68.78-.68h4.74c.39,0,.64.24.54.68Z"/>
          <path class="cls-1" d="m82.7,39.88l-3.67,22.97c-1.22,7.72-5.96,12.66-14.22,12.66-7.18,0-11.09-3.86-11.09-10.02,0-.83.1-1.76.24-2.69l3.62-22.92c.1-.44.34-.68.78-.68h4.74c.44,0,.64.24.54.68l-3.57,22.63c-.1.78-.2,1.56-.2,2.3,0,3.37,1.76,5.08,5.38,5.08,4.45,0,6.99-2.54,7.77-7.38l3.57-22.63c.1-.44.34-.68.78-.68h4.74c.44,0,.64.24.59.68Z"/>
        </g>
        <g>
          <g>
            <g>
              <path class="cls-3" d="m105.08,70.2l-5.87-1.64-.76,2.76c-.03.1-.1.12-.19.09l-.88-.25c-.07-.02-.11-.08-.09-.16l1.07-3.88c.03-.1.09-.12.17-.1l6.89,1.92c.09.02.13.08.1.17l-.27.96c-.03.1-.09.13-.18.11Z"/>
              <path class="cls-3" d="m101.98,78.84l-.82-.34c-.09-.04-.11-.1-.08-.19l1.12-2.68-1.77-.75-1.01,2.41c-.04.08-.1.11-.19.08l-.78-.33c-.09-.04-.11-.1-.08-.19l1.01-2.41-1.89-.8-1.13,2.69c-.04.08-.09.11-.19.08l-.81-.34c-.09-.04-.11-.1-.08-.19l1.57-3.75c.04-.09.1-.11.19-.08l6.6,2.78c.08.04.12.09.08.19l-1.57,3.74c-.04.08-.1.11-.19.08Z"/>
              <path class="cls-3" d="m91.91,81.8l.53-.89c.05-.09.11-.1.2-.08l1.76.43,1.28-2.14-1.21-1.35c-.06-.07-.06-.15-.02-.23l.5-.83c.05-.08.13-.08.19,0l4.98,5.59c.08.07.08.15.03.23l-.66,1.1c-.06.1-.12.13-.23.1l-7.27-1.75c-.09-.02-.13-.1-.09-.17Zm3.69-.24l.9.22c.7.18,1.56.42,2.17.63l.02-.03c-.48-.45-1.09-1.1-1.58-1.66l-.61-.67-.9,1.52Z"/>
              <path class="cls-3" d="m91.55,89.7l-1.51-1.26c-1.24-1.03-1.51-2.5-.27-4l1.46-1.76c.06-.08.13-.08.2-.02l5.51,4.59c.07.06.08.12.02.2l-1.46,1.76c-1.24,1.5-2.74,1.5-3.95.49Zm3.75-2.14l-3.86-3.22-.71.86c-.73.88-.6,1.63.17,2.27l1.44,1.2c.77.64,1.52.64,2.25-.25l.72-.86Z"/>
              <path class="cls-3" d="m88.61,95.95l-.59-.66c-.07-.08-.06-.14,0-.2l2.16-1.94-1.29-1.43-1.94,1.74c-.07.06-.14.06-.2-.01l-.56-.63c-.07-.08-.06-.14,0-.2l1.94-1.74-1.37-1.53-2.16,1.95c-.07.06-.13.06-.2-.01l-.59-.66c-.07-.08-.06-.14,0-.2l3.02-2.71c.08-.07.14-.06.2.01l4.79,5.33c.06.07.07.13,0,.2l-3.01,2.71c-.07.06-.14.06-.2-.01Z"/>
              <path class="cls-3" d="m78.5,94.14l.92-.62c.09-.06.15-.05.24,0l2.66,1.41.85-.57-1.48-2.2c-.05-.08-.04-.15.05-.2l.83-.56c.08-.06.15-.04.2.04l4,5.95c.05.08.05.14-.04.2l-2.01,1.35c-1.31.88-2.46.56-3.18-.5l-.15-.22c-.55-.81-.58-1.68-.03-2.43l-2.84-1.45c-.08-.03-.11-.13-.01-.2Zm5.31,1.16l-.98.66c-.69.47-.75.98-.36,1.56l.1.15c.37.56.88.72,1.58.25l.98-.66-1.32-1.96Z"/>
              <path class="cls-3" d="m71.93,102.36l-.81-2.03c-.59-1.49-.13-2.92,1.59-3.6,1.72-.68,3.02-.02,3.63,1.51l.81,2.02c.62,1.55.13,2.92-1.59,3.6-1.72.68-3.04-.03-3.63-1.51Zm4.02-1.63l-.79-1.99c-.36-.91-1.01-1.29-1.99-.9-.97.39-1.2,1.11-.83,2.02l.79,1.99c.36.91,1.02,1.28,1.99.9.98-.39,1.2-1.11.84-2.02Z"/>
              <path class="cls-3" d="m66.42,106.3l-.21-.86c-.02-.1.02-.15.1-.17l2.73-.64-.5-2.11-2.43.58c-.09.02-.15-.02-.17-.12l-.2-.81c-.02-.1.02-.15.1-.17l2.43-.57-.66-2.76c-.02-.09.02-.15.11-.17l.97-.23c.1-.02.15.02.17.11l1.67,6.97c.02.09,0,.15-.1.17l-3.84.91c-.09.02-.15-.02-.17-.11Z"/>
              <path class="cls-3" d="m57.08,107.15l-.05-.92c0-.07.04-.14.12-.15l1.93-.09-.31-6.09c0-.08.05-.15.13-.15l1.03-.05c.08,0,.12.06.13.14l.31,6.09,1.94-.09c.08,0,.12.07.13.14l.05.92c0,.07-.03.14-.11.15l-5.17.25c-.08,0-.14-.06-.14-.14Z"/>
              <path class="cls-3" d="m50.82,106.67l.08-.88c0-.1.06-.14.15-.13l2.9.26.16-1.91-2.6-.23c-.09,0-.14-.06-.13-.15l.07-.84c0-.1.06-.14.15-.13l2.6.23.17-2.05-2.9-.26c-.09,0-.14-.05-.13-.15l.08-.88c0-.1.06-.14.15-.13l4.05.36c.1,0,.14.06.13.15l-.61,7.13c0,.09-.05.14-.15.13l-4.04-.36c-.09,0-.14-.06-.13-.15Z"/>
              <path class="cls-3" d="m44.12,103.67c-.01-.13.04-.2.15-.21l.89-.07c.13,0,.18.04.18.17.07.62.29,1.1,1.06,1.28.91.21,1.47-.27,1.69-1.24l.46-2.04c.22-.97-.1-1.65-.99-1.85-.81-.19-1.27.18-1.57.76-.06.11-.13.14-.23.07l-.77-.47c-.09-.05-.12-.13-.06-.25.51-1,1.45-1.61,2.91-1.27,1.65.38,2.35,1.65,1.99,3.25l-.49,2.16c-.36,1.61-1.55,2.44-3.19,2.06-1.42-.33-1.97-1.22-2.03-2.34Z"/>
              <path class="cls-3" d="m36.58,102.53l2.63-6.65c.03-.08.09-.12.18-.08l.94.38c.08.03.11.1.08.18l-1.1,2.78,2.66,1.06,1.1-2.78c.03-.08.1-.11.19-.08l.93.37c.09.04.11.1.08.18l-2.63,6.65c-.03.08-.09.12-.18.08l-.93-.37c-.09-.04-.12-.1-.09-.19l1.09-2.76-2.66-1.06-1.09,2.76c-.03.08-.1.11-.18.08l-.94-.37c-.09-.04-.11-.1-.08-.19Z"/>
              <path class="cls-3" d="m29.36,98.38l3.69-6.07c.06-.1.15-.12.25-.06l1.12.69c.1.06.12.15.1.28l-.41,4.13c-.08.79-.23,1.63-.37,2.28l.03.02c.29-.57.61-1.15.97-1.74l2.04-3.36c.05-.08.11-.1.19-.05l.81.5c.09.05.1.12.05.2l-3.69,6.07c-.06.1-.15.12-.25.06l-1.2-.73c-.1-.06-.12-.15-.1-.28l.46-4.1c.09-.78.26-1.59.38-2.23h-.02c-.28.55-.59,1.14-.95,1.73l-2.03,3.33c-.05.08-.12.09-.2.04l-.81-.5c-.08-.05-.09-.12-.05-.19Z"/>
              <path class="cls-3" d="m24.66,91.32l1.42-1.64c1.05-1.21,2.52-1.45,3.93-.24,1.41,1.22,1.42,2.67.35,3.91l-1.42,1.64c-1.09,1.26-2.52,1.45-3.93.24-1.41-1.22-1.38-2.72-.35-3.91Zm3.31,2.82l1.39-1.61c.64-.74.67-1.49-.13-2.18-.79-.69-1.54-.55-2.17.18l-1.39,1.61c-.64.74-.66,1.49.13,2.18.8.7,1.54.55,2.18-.18Z"/>
              <path class="cls-3" d="m20.55,90.46l4.59-3.99-1.88-2.17c-.07-.08-.05-.15.03-.21l.69-.6c.05-.05.13-.05.19.01l2.64,3.05c.07.08.05.14-.01.2l-5.39,4.69c-.07.06-.13.06-.2-.01l-.66-.76c-.07-.08-.06-.15,0-.21Z"/>
              <path class="cls-3" d="m16.64,80.93l1.82-1.19c1.34-.88,2.83-.7,3.84.86,1.02,1.56.64,2.96-.74,3.86l-1.82,1.19c-1.39.91-2.83.7-3.84-.86-1.02-1.56-.58-2.99.74-3.86Zm2.41,3.62l1.78-1.17c.81-.53,1.05-1.24.47-2.13-.58-.88-1.33-.96-2.14-.42l-1.78,1.17c-.81.53-1.05,1.25-.47,2.13.58.89,1.33.96,2.14.42Z"/>
              <path class="cls-3" d="m12.66,74.74c.1-.08.18-.07.26,0l.6.69c.09.09.08.17-.01.24-.5.46-.63.97-.32,1.65.43.96,1.16,1.15,2.07.74l1.91-.86c.91-.41,1.25-1.08.81-2.04-.38-.84-.98-1.14-1.83-.76l-.47.21.52,1.15c.03.07.02.14-.08.18l-.76.34c-.09.04-.16.02-.19-.06l-.97-2.14c-.04-.09-.02-.17.06-.21l1.43-.64c1.32-.6,2.7-.05,3.37,1.43.76,1.69.18,3.01-1.32,3.69l-2.02.91c-1.5.67-2.89.23-3.64-1.46-.62-1.37-.19-2.39.57-3.07Z"/>
              <path class="cls-3" d="m9.11,68.21l4.64,1.1,2.83-.81c.09-.03.15,0,.18.1l.28.98c.02.08-.01.14-.1.17l-2.81.8-3.37,3.39c-.07.08-.18.07-.21-.04l-.3-1.06c-.03-.1-.02-.16.06-.24l2.49-2.37-3.37-.69c-.1-.02-.15-.06-.17-.16l-.29-1.01c-.03-.12.05-.18.16-.15Z"/>
            </g>
            <g>
              <path class="cls-3" d="m8.37,50.17l4.73.42c1.55.14,2.57,1.17,2.42,2.93-.15,1.76-1.28,2.59-2.89,2.45l-4.73-.42c-.09,0-.14-.06-.13-.15l.09-.99c0-.11.06-.15.15-.14l4.68.41c.94.08,1.55-.3,1.63-1.26.08-.97-.44-1.46-1.39-1.54l-4.68-.41c-.09,0-.14-.06-.13-.15l.09-.99c0-.11.06-.15.15-.14Z"/>
              <path class="cls-3" d="m10.19,42.14l6.89,1.77c.12.03.16.1.13.22l-.33,1.27c-.03.11-.1.16-.23.18l-4.07.8c-.78.15-1.63.25-2.29.31v.03c.63.11,1.27.25,1.94.42l3.81.98c.09.02.13.07.1.17l-.23.92c-.02.1-.08.12-.17.1l-6.89-1.77c-.12-.03-.16-.1-.13-.22l.35-1.36c.03-.12.1-.16.23-.18l4.05-.75c.77-.14,1.6-.21,2.25-.29v-.02c-.62-.11-1.27-.23-1.94-.41l-3.78-.97c-.09-.02-.13-.08-.1-.18l.23-.92c.02-.09.08-.12.17-.1Z"/>
              <path class="cls-3" d="m11.59,38.48l5.62,2.35,1.11-2.64c.04-.09.11-.11.21-.07l.84.35c.07.03.1.1.07.17l-1.55,3.71c-.04.09-.1.11-.19.08l-6.61-2.77c-.08-.04-.12-.09-.08-.19l.39-.92c.04-.09.11-.12.19-.08Z"/>
              <path class="cls-3" d="m14.16,33.09l6.31,3.39c.08.04.1.11.05.2l-.47.88c-.05.09-.11.1-.19.06l-6.31-3.39c-.08-.04-.11-.1-.06-.19l.47-.88c.05-.09.12-.11.2-.07Z"/>
              <path class="cls-3" d="m19.38,25.35l5.77,4.16c.07.05.09.12.03.2l-.53.74c-.05.07-.12.08-.19.02l-3.27-2.36c-.46-.33-1.16-.88-1.59-1.24l-.02.03,3.93,4.82c.08.1.1.18.02.29l-.51.7c-.08.11-.17.11-.28.07l-5.82-2.19-.02.02c.47.29,1.23.77,1.69,1.11l3.27,2.36c.07.05.09.12.03.2l-.53.73c-.05.07-.13.07-.19.02l-5.77-4.16c-.1-.07-.12-.16-.04-.27l.86-1.19c.08-.11.17-.13.28-.08l3.55,1.33c.82.32,1.4.54,2.08.86l.02-.02c-.53-.54-.93-1.01-1.49-1.7l-2.37-2.94c-.09-.1-.1-.19-.03-.29l.85-1.18c.07-.1.17-.11.27-.04Z"/>
              <path class="cls-3" d="m21.99,22.54l5.21,4.92c.07.06.07.13,0,.21l-.69.73c-.07.07-.13.07-.2,0l-5.21-4.92c-.07-.06-.08-.13,0-.2l.69-.73c.07-.07.14-.08.21-.01Z"/>
              <path class="cls-3" d="m27.29,17.72l.6.7c.05.05.05.14,0,.19l-1.47,1.26,3.98,4.62c.05.06.05.15-.01.2l-.78.67c-.06.05-.13.03-.18-.03l-3.98-4.62-1.48,1.27c-.06.05-.14.02-.18-.03l-.6-.7c-.05-.05-.06-.13,0-.19l3.92-3.38c.06-.05.15-.03.19.02Z"/>
              <path class="cls-3" d="m32.5,14.23l.48.74c.06.09.04.15-.04.2l-2.44,1.58,1.05,1.61,2.19-1.42c.08-.05.15-.03.2.04l.46.71c.06.09.04.15-.04.2l-2.19,1.42,1.12,1.72,2.44-1.59c.08-.05.14-.04.2.04l.48.74c.06.09.04.15-.04.2l-3.41,2.21c-.08.06-.15.03-.2-.04l-3.9-6.01c-.05-.08-.04-.14.04-.2l3.4-2.21c.08-.05.15-.03.2.04Z"/>
              <path class="cls-3" d="m40.51,13.2l.82,1.79c.67,1.46.28,2.91-1.49,3.71l-2.08.95c-.09.04-.15.01-.19-.07l-2.98-6.51c-.04-.08-.02-.15.07-.19l2.08-.95c1.77-.81,3.12-.16,3.78,1.27Zm-4.31.3l2.09,4.57,1.02-.46c1.05-.48,1.24-1.21.83-2.11l-.78-1.7c-.41-.91-1.1-1.23-2.14-.75l-1.02.46Z"/>
              <path class="cls-3" d="m47.35,15.92l-3.66-6.5c-.06-.08-.03-.16.05-.18l1.02-.23c.1-.02.15,0,.2.09l1.91,3.46c.35.64.76,1.42,1.02,2.01h.03c0-.66.04-1.55.09-2.29l.25-3.92c0-.1.07-.15.16-.17l.95-.21c.09-.02.14.04.13.14l-.52,7.43c0,.11-.06.16-.15.18l-1.26.28c-.11.02-.17,0-.23-.1Z"/>
              <path class="cls-3" d="m57.02,14.78l-1.04.08c-.1,0-.14-.03-.18-.12l-.67-1.68-2.49.19-.4,1.76c-.02.09-.09.14-.18.15l-.97.07c-.09,0-.14-.06-.11-.15l1.66-7.29c.01-.1.08-.15.17-.16l1.28-.1c.12,0,.17.03.21.13l2.8,6.95c.04.09,0,.16-.09.17Zm-2.34-2.87l-.34-.86c-.26-.67-.56-1.52-.75-2.14h-.04c-.09.65-.27,1.52-.43,2.25l-.19.88,1.76-.14Z"/>
              <path class="cls-3" d="m59.77,7.64l-.36,6.08,2.86.17c.1,0,.14.07.13.17l-.05.91c0,.07-.06.13-.14.12l-4.02-.24c-.1,0-.14-.06-.13-.15l.42-7.15c0-.09.05-.14.15-.13l1,.06c.1,0,.15.06.14.15Z"/>
              <path class="cls-3" d="m69.72,9.09l-.94,4.66c-.31,1.53-1.45,2.43-3.18,2.08-1.73-.35-2.43-1.56-2.11-3.15l.94-4.66c.02-.09.08-.13.17-.11l.98.2c.11.02.14.08.12.17l-.93,4.61c-.19.93.13,1.57,1.07,1.76.95.19,1.5-.28,1.68-1.21l.93-4.61c.02-.09.08-.13.17-.11l.98.2c.11.02.14.08.12.17Z"/>
              <path class="cls-3" d="m76.28,11.32l-.3.83c-.04.1-.1.12-.18.09l-2.73-.99-.66,1.81,2.46.9c.09.03.12.1.08.18l-.29.79c-.04.1-.1.12-.18.09l-2.46-.89-.7,1.93,2.74,1c.09.03.12.09.08.18l-.3.83c-.03.1-.1.12-.18.09l-3.82-1.39c-.09-.03-.12-.1-.08-.18l2.44-6.73c.03-.09.09-.12.18-.09l3.81,1.39c.09.03.12.1.08.18Z"/>
              <path class="cls-3" d="m84.47,17.58c-.03.13-.11.17-.21.15l-.87-.22c-.12-.04-.15-.1-.12-.21.14-.61.08-1.13-.59-1.54-.8-.49-1.48-.22-2,.63l-1.09,1.78c-.52.85-.43,1.59.34,2.07.71.43,1.26.24,1.73-.21.09-.09.17-.09.24,0l.58.69c.07.08.07.16-.03.26-.81.78-1.89,1.06-3.17.28-1.45-.89-1.7-2.31-.84-3.71l1.16-1.89c.86-1.4,2.25-1.82,3.69-.93,1.24.76,1.47,1.79,1.17,2.86Z"/>
              <path class="cls-3" d="m86.26,26.37l-.85-.71c-.09-.07-.09-.13-.07-.23l.61-2.95-.79-.66-1.69,2.03c-.06.07-.13.08-.21.01l-.77-.64c-.08-.06-.08-.13-.02-.2l4.59-5.49c.06-.07.12-.08.2-.02l1.87,1.56c1.22,1.02,1.23,2.21.41,3.19l-.17.2c-.63.75-1.45,1.03-2.33.71l-.59,3.13c0,.09-.1.15-.19.07Zm-.38-5.42l.91.76c.64.54,1.15.45,1.6-.08l.12-.14c.43-.51.44-1.05-.2-1.59l-.91-.76-1.51,1.81Z"/>
              <path class="cls-3" d="m95.43,25.58l-.66.59c-.08.07-.14.06-.2,0l-1.95-2.16-1.43,1.29,1.75,1.94c.06.07.06.14-.01.2l-.63.57c-.08.07-.14.06-.2,0l-1.75-1.94-1.52,1.38,1.95,2.16c.06.07.06.13-.01.2l-.66.59c-.08.07-.14.06-.2,0l-2.73-3.02c-.07-.08-.06-.14.01-.2l5.31-4.8c.07-.06.13-.07.2,0l2.72,3.01c.06.07.06.14-.01.2Z"/>
              <path class="cls-3" d="m93.84,35.96l-.58-.86c-.06-.08-.05-.14.01-.22l1.13-1.41-1.39-2.07-1.73.52c-.09.03-.17,0-.22-.09l-.54-.8c-.05-.08-.01-.15.08-.17l7.16-2.15c.1-.04.17,0,.22.07l.72,1.06c.07.1.06.17,0,.25l-4.65,5.86c-.06.08-.15.07-.19,0Zm1.34-3.45l.58-.72c.46-.55,1.04-1.24,1.48-1.71l-.02-.03c-.61.24-1.45.52-2.17.73l-.86.27.99,1.47Z"/>
              <path class="cls-3" d="m102.67,37.32l-.83.42c-.06.03-.15.02-.19-.05l-.87-1.73-5.44,2.74c-.07.04-.15,0-.19-.06l-.46-.92c-.04-.07,0-.14.07-.17l5.44-2.74-.88-1.74c-.04-.07,0-.14.07-.17l.83-.42c.06-.03.15-.03.18.04l2.33,4.62c.04.07,0,.15-.07.18Z"/>
              <path class="cls-3" d="m103.73,40.18l-6.69,2.54c-.09.03-.15,0-.19-.09l-.36-.93c-.04-.09,0-.15.08-.18l6.69-2.54c.09-.03.15-.01.18.08l.36.93c.04.09,0,.16-.08.19Z"/>
              <path class="cls-3" d="m103.5,48.34l-2.11.53c-1.56.39-2.91-.25-3.36-2.05-.46-1.8.36-3,1.96-3.4l2.11-.53c1.62-.41,2.91.25,3.36,2.05.46,1.8-.42,3.01-1.96,3.4Zm-1.1-4.2l-2.07.52c-.95.24-1.4.83-1.14,1.86.26,1.02.95,1.33,1.89,1.09l2.07-.52c.95-.24,1.4-.84,1.14-1.86-.26-1.03-.95-1.33-1.89-1.09Z"/>
              <path class="cls-3" d="m106.81,55.75l-7.09.61c-.12.01-.19-.04-.2-.17l-.11-1.31c0-.11.04-.19.16-.25l3.57-2.1c.69-.4,1.45-.77,2.06-1.05v-.03c-.64.11-1.29.19-1.98.25l-3.92.34c-.09,0-.15-.03-.15-.13l-.08-.95c0-.1.04-.14.13-.15l7.09-.61c.12-.01.19.04.2.17l.12,1.4c.01.12-.05.19-.16.25l-3.58,2.05c-.68.38-1.44.73-2.02,1.02v.02c.63-.1,1.28-.2,1.97-.26l3.89-.34c.09,0,.15.04.15.14l.08.95c0,.09-.04.15-.13.15Z"/>
            </g>
          </g>
          <ellipse class="cls-3" cx="103.38" cy="61.65" rx="1.12" ry="1.13"/>
          <ellipse class="cls-3" cx="11.36" cy="61.65" rx="1.12" ry="1.13"/>
        </g>
      </g>
      <g>
        <path class="cls-2" d="m145.31,28.49h13.55v49.05h23.31l-1.34,10.97h-35.52V28.49Z"/>
        <path class="cls-2" d="m190.03,39.58h-14.31v-11.09h42.17v11.09h-14.28v48.94h-13.58v-48.94Z"/>
        <path class="cls-2" d="m227.56,68.63c0,5.19,1.21,10.63,6.82,10.63,4.6,0,5.69-3.19,6.1-5.08h12.78c-1.33,5.18-4.82,15.19-19.18,15.19-15.32,0-19.79-11.07-19.79-23.98s5.82-23.75,20.17-23.75,19.25,10.52,19.25,22.71c0,1.1-.08,3.54-.16,4.28h-25.99Zm13.15-8.46c-.09-4.28-1.12-8.74-6.37-8.74-5.54,0-6.54,4.94-6.62,8.74h12.99Z"/>
        <path class="cls-2" d="m297.95,72.19c-.76,7.46-4.62,17.14-19.04,17.14s-19.37-9.7-19.37-23.94,6.69-23.8,20.08-23.8c15.74,0,18.2,11.93,18.34,17.04h-13.1c-.2-3.22-1.1-7.08-5.4-7.08-4.74,0-6.48,4.68-6.48,13.58,0,10.14,2.01,14.27,6.31,14.27s5.27-3.63,5.84-7.22h12.82Z"/>
        <path class="cls-2" d="m318.01,25.17v21.96c1.96-3.18,5.47-5.54,11.43-5.54,8.37,0,13.1,5.1,13.1,15.67v31.25h-13.15v-29.18c0-4.15-.96-7.02-5.43-7.02s-5.95,3.26-5.95,9.23v26.98h-13.24V25.17h13.24Z"/>
        <path class="cls-2" d="m363.64,28.49v39.75c0,5.18,1.25,10.64,8.46,10.64s8.27-4.98,8.27-10.61V28.49h13.62v39.75c0,12.25-5.45,21.29-22.14,21.29s-21.76-8.89-21.76-21.34V28.49h13.55Z"/>
        <path class="cls-2" d="m415.76,88.52l-16.85-60.03h14.47c.09.46,6.05,24.91,6.14,25.38,1.9,7.84,3.55,15.47,4.42,21.64h.23c.97-6.1,2.93-13.94,4.76-21.35.11-.48,6.22-25.2,6.32-25.66h13.93l-17.28,60.03h-16.15Z"/>
        <path class="cls-2" d="m497.31,69.67c-1,7.82-5.64,19.86-22.06,19.86-18.47,0-23.42-13.86-23.42-30.99,0-18.66,7.71-30.99,24-30.99s20.95,11.99,21.3,19.66h-13.3c-.65-3.62-1.56-8.93-8.29-8.93-7.49,0-9.7,8.05-9.7,20.31,0,11.37,2,20.32,9.67,20.32,6.58,0,7.83-5.84,8.44-9.24h13.38Z"/>
      </g>
    </g>
  </g>
</svg>