<svg xmlns="http://www.w3.org/2000/svg" viewBox="0 0 17 17">
  <g id="lang-icon" transform="translate(-1792.5 -32.5)">
    <path id="패스_5" data-name="패스 5" d="M127.357,143.024a11.153,11.153,0,0,0-.612,3.252h3.8v-3.252Z" transform="translate(1669.963 -105.787)" fill="current"/>
    <path id="패스_6" data-name="패스 6" d="M158.676,2.84a11.323,11.323,0,0,0-1.245,2.055h2.782V1.183A11.411,11.411,0,0,0,158.676,2.84Z" transform="translate(1640.297 31.317)" fill="current"/>
    <path id="패스_7" data-name="패스 7" d="M.851,143.024A8.456,8.456,0,0,0,0,146.276H3.21a12.252,12.252,0,0,1,.563-3.252Z" transform="translate(1792.5 -105.787)" fill="current"/>
    <path id="패스_8" data-name="패스 8" d="M126.771,271.005a11.19,11.19,0,0,0,.62,3.252h3.18v-3.252Z" transform="translate(1669.938 -229.495)" fill="current"/>
    <path id="패스_9" data-name="패스 9" d="M157.669,398.987a11.265,11.265,0,0,0,1.261,2.086,11.4,11.4,0,0,0,1.513,1.627v-3.713h-2.774Z" transform="translate(1640.066 -353.2)" fill="current"/>
    <path id="패스_10" data-name="패스 10" d="M274.43,143.024h-3.164v3.252h3.784A11.192,11.192,0,0,0,274.43,143.024Z" transform="translate(1530.241 -105.787)" fill="current"/>
    <path id="패스_11" data-name="패스 11" d="M3.21,271.005H0a8.456,8.456,0,0,0,.851,3.252H3.773A12.253,12.253,0,0,1,3.21,271.005Z" transform="translate(1792.5 -229.495)" fill="current"/>
    <path id="패스_12" data-name="패스 12" d="M272.761,3.174a11.4,11.4,0,0,0-1.5-1.613v3.7h2.758A11.257,11.257,0,0,0,272.761,3.174Z" transform="translate(1530.243 30.952)" fill="current"/>
    <path id="패스_13" data-name="패스 13" d="M44.1,9.767a8.6,8.6,0,0,0-1.05,1.273h2.71a12.241,12.241,0,0,1,1.563-2.692c.227-.3.454-.566.673-.809A8.463,8.463,0,0,0,44.1,9.767Z" transform="translate(1750.882 25.172)" fill="current"/>
    <path id="패스_14" data-name="패스 14" d="M47.322,401.678a12.239,12.239,0,0,1-1.563-2.692h-2.71a8.6,8.6,0,0,0,1.05,1.273,8.462,8.462,0,0,0,3.9,2.228C47.775,402.244,47.549,401.975,47.322,401.678Z" transform="translate(1750.882 -353.199)" fill="current"/>
    <path id="패스_15" data-name="패스 15" d="M322.2,398.988h0a12.241,12.241,0,0,1-1.563,2.692c-.227.3-.454.566-.673.809a8.463,8.463,0,0,0,3.9-2.228,8.6,8.6,0,0,0,1.05-1.273Z" transform="translate(1483.161 -353.201)" fill="current"/>
    <path id="패스_16" data-name="패스 16" d="M271.265,398.987v3.7a11.5,11.5,0,0,0,2.766-3.7Z" transform="translate(1530.242 -353.2)" fill="current"/>
    <path id="패스_17" data-name="패스 17" d="M323.86,9.769a8.463,8.463,0,0,0-3.9-2.228c.219.242.446.512.673.809a12.24,12.24,0,0,1,1.563,2.692h2.71A8.6,8.6,0,0,0,323.86,9.769Z" transform="translate(1483.161 25.17)" fill="current"/>
    <path id="패스_18" data-name="패스 18" d="M401.292,143.024H398.37a12.254,12.254,0,0,1,.563,3.252h3.21A8.456,8.456,0,0,0,401.292,143.024Z" transform="translate(1407.357 -105.787)" fill="current"/>
    <path id="패스_19" data-name="패스 19" d="M271.265,271.005v3.252h3.173a11.152,11.152,0,0,0,.612-3.252Z" transform="translate(1530.242 -229.495)" fill="current"/>
    <path id="패스_20" data-name="패스 20" d="M398.932,271.005a12.251,12.251,0,0,1-.563,3.252h2.922a8.457,8.457,0,0,0,.851-3.252Z" transform="translate(1407.357 -229.495)" fill="current"/>
  </g>
</svg>
