<svg xmlns="http://www.w3.org/2000/svg" viewBox="0 0 15 21">
  <g id="free-icon-scroll-down-8387411" transform="translate(-4.25 -1.67)">
    <path id="패스_1" data-name="패스 1" d="M6.447,3.887a7.451,7.451,0,0,1,10.607,0,7.606,7.606,0,0,1,2.2,5.353V15.1a7.606,7.606,0,0,1-2.2,5.353,7.452,7.452,0,0,1-10.607,0A7.606,7.606,0,0,1,4.25,15.1V9.24a7.606,7.606,0,0,1,2.2-5.353Zm5.3-.752A6.02,6.02,0,0,0,7.473,4.923,6.134,6.134,0,0,0,5.7,9.24V15.1a6.134,6.134,0,0,0,1.772,4.317,6.009,6.009,0,0,0,8.554,0A6.134,6.134,0,0,0,17.8,15.1V9.24a6.134,6.134,0,0,0-1.772-4.317A6.02,6.02,0,0,0,11.75,3.135Z" fill="#eee" fill-rule="evenodd"/>
    <path id="패스_2" data-name="패스 2" d="M12,5.67a.75.75,0,0,1,.75.75v8a.75.75,0,1,1-1.5,0v-8A.75.75,0,0,1,12,5.67Z" transform="translate(-0.25 -0.167)" fill="#eee" fill-rule="evenodd"/>
    <path id="패스_3" data-name="패스 3" d="M8.47,10.89a.75.75,0,0,1,1.061,0L12,13.359l2.47-2.47A.75.75,0,0,1,15.53,11.95l-3,3a.75.75,0,0,1-1.061,0l-3-3a.75.75,0,0,1,0-1.061Z" transform="translate(-0.25 -0.265)" fill="#eee" fill-rule="evenodd"/>
  </g>
</svg>
