<svg id="back-icon" xmlns="http://www.w3.org/2000/svg" xmlns:xlink="http://www.w3.org/1999/xlink" viewBox="0 0 22 22">
  <defs>
    <clipPath id="clip-path">
      <rect id="사각형_8808" data-name="사각형 8808" width="10.794" height="22" fill="none"/>
    </clipPath>
  </defs>
  <rect id="사각형_8376" data-name="사각형 8376" width="22" height="22" fill="none" opacity="0"/>
  <g id="그룹_96826" data-name="그룹 96826" transform="translate(5.603 0)">
    <g id="그룹_96825" data-name="그룹 96825" clip-path="url(#clip-path)">
      <path id="패스_87738" data-name="패스 87738" d="M.331,19.877l7.55-8.744L.524,2.1a1.245,1.245,0,0,1-.317-.84A1.252,1.252,0,0,1,.565.375,1.227,1.227,0,0,1,1.439,0a1.257,1.257,0,0,1,.886.391l8.138,9.918a1.264,1.264,0,0,1-.014,1.722L2.093,21.617A1.218,1.218,0,0,1,1.219,22a1.223,1.223,0,0,1-.877-.384,1.292,1.292,0,0,1-.011-1.739" transform="translate(-0.001 0)" fill="#333"/>
    </g>
  </g>
</svg>
