<svg id="youtube-icon" xmlns="http://www.w3.org/2000/svg" viewBox="0 0 97.303 21.721">
  <path id="패스_87739" data-name="패스 87739" d="M30.382,3.392A3.886,3.886,0,0,0,27.638.649C25.219,0,15.515,0,15.515,0S5.812,0,3.392.649A3.886,3.886,0,0,0,.649,3.392,40.375,40.375,0,0,0,0,10.861a40.373,40.373,0,0,0,.649,7.469,3.886,3.886,0,0,0,2.743,2.743c2.42.648,12.123.648,12.123.648s9.7,0,12.123-.648a3.886,3.886,0,0,0,2.743-2.744,40.372,40.372,0,0,0,.649-7.469,40.373,40.373,0,0,0-.649-7.469Z" transform="translate(0)" fill="red"/>
  <path id="패스_87740" data-name="패스 87740" d="M48.594,20.009l8.061-4.654L48.594,10.7Zm32.628,4.246a3.381,3.381,0,0,1-1.309-1.93,12.641,12.641,0,0,1-.388-3.484V16.865a11.449,11.449,0,0,1,.444-3.528A3.54,3.54,0,0,1,81.355,11.4a4.493,4.493,0,0,1,2.474-.61,4.219,4.219,0,0,1,2.419.621,3.563,3.563,0,0,1,1.331,1.941A11.908,11.908,0,0,1,88,16.865V18.84a12.113,12.113,0,0,1-.41,3.495,3.43,3.43,0,0,1-1.332,1.93,5.46,5.46,0,0,1-5.037-.011Zm3.439-2.13a6.619,6.619,0,0,0,.255-2.174V15.711a6.552,6.552,0,0,0-.255-2.141.913.913,0,0,0-.9-.677.9.9,0,0,0-.877.677,6.552,6.552,0,0,0-.255,2.141V19.95a6.911,6.911,0,0,0,.244,2.174.892.892,0,0,0,.888.666A.911.911,0,0,0,84.661,22.124Zm43.692-3.252v.688a18.062,18.062,0,0,0,.077,1.964,1.863,1.863,0,0,0,.322.954.915.915,0,0,0,.755.3.95.95,0,0,0,.943-.533,4.624,4.624,0,0,0,.277-1.775l2.641.155a4.156,4.156,0,0,1,.022.488,3.609,3.609,0,0,1-1.032,2.818,4.2,4.2,0,0,1-2.917.932,3.475,3.475,0,0,1-3.173-1.42,8.314,8.314,0,0,1-.91-4.393V16.675A8.225,8.225,0,0,1,126.3,12.2a3.6,3.6,0,0,1,3.229-1.409,4.265,4.265,0,0,1,2.419.577,3.1,3.1,0,0,1,1.187,1.8,12.977,12.977,0,0,1,.344,3.372v2.33l-5.126,0Zm.388-5.725a1.874,1.874,0,0,0-.311.943,18.417,18.417,0,0,0-.077,1.986v.976H130.6v-.976a16.639,16.639,0,0,0-.088-1.986,1.9,1.9,0,0,0-.322-.954.89.89,0,0,0-.721-.277.873.873,0,0,0-.722.288ZM73.766,18.619,70.281,6.036h3.04l1.22,5.7q.466,2.109.688,3.595h.089q.155-1.065.688-3.573l1.265-5.725h3.04L76.783,18.619v6.035H73.766Zm24.123-7.568v13.6h-2.4l-.266-1.664h-.066a3.131,3.131,0,0,1-2.928,1.887,2.3,2.3,0,0,1-2-.888,4.768,4.768,0,0,1-.643-2.774V11.052h3.062v9.986a3.047,3.047,0,0,0,.2,1.3.69.69,0,0,0,.666.388,1.357,1.357,0,0,0,.766-.244,1.514,1.514,0,0,0,.544-.621V11.052Zm15.708,0v13.6h-2.4l-.266-1.664h-.066a3.133,3.133,0,0,1-2.929,1.887,2.3,2.3,0,0,1-2-.888,4.768,4.768,0,0,1-.643-2.774V11.052h3.062v9.986a3.047,3.047,0,0,0,.2,1.3.69.69,0,0,0,.666.388,1.357,1.357,0,0,0,.766-.244,1.514,1.514,0,0,0,.544-.621V11.052Z" transform="translate(-36.182 -4.494)" fill="#555"/>
  <path id="패스_87741" data-name="패스 87741" d="M247.709,6.5h-3.04V22.65h-3V6.5h-3.04V4.032h9.076Zm17.521,4.726a3.5,3.5,0,0,0-.9-1.865,2.415,2.415,0,0,0-1.709-.577,2.835,2.835,0,0,0-1.575.477,3.243,3.243,0,0,0-1.132,1.254h-.022V3.344h-2.951V22.65h2.529l.311-1.287h.066a2.6,2.6,0,0,0,1.065,1.087,3.16,3.16,0,0,0,1.576.4,2.411,2.411,0,0,0,2.286-1.43,10.3,10.3,0,0,0,.732-4.471V14.794A17.894,17.894,0,0,0,265.231,11.222Zm-2.807,5.549a17.232,17.232,0,0,1-.122,2.33,2.521,2.521,0,0,1-.41,1.2.949.949,0,0,1-.776.355,1.421,1.421,0,0,1-.7-.179,1.339,1.339,0,0,1-.522-.533v-7.72a1.937,1.937,0,0,1,.533-.91,1.178,1.178,0,0,1,.821-.355.828.828,0,0,1,.721.366,2.817,2.817,0,0,1,.355,1.232,22.988,22.988,0,0,1,.1,2.463Z" transform="translate(-177.681 -2.49)" fill="#555"/>
  <path id="패스_87742" data-name="패스 87742" d="M48.594,20.009l8.061-4.654L48.594,10.7Z" transform="translate(-36.182 -4.494)" fill="#fff"/>
</svg>
